<?xml version="1.0" encoding="UTF-8"?>
<!DOCTYPE svg PUBLIC "-//W3C//DTD SVG 1.1//EN" "http://www.w3.org/Graphics/SVG/1.1/DTD/svg11.dtd">
<!-- Creator: CorelDRAW 2021 (64 Bit) -->
<svg xmlns="http://www.w3.org/2000/svg" xml:space="preserve" width="201.315mm" height="201.315mm" version="1.1" style="shape-rendering:geometricPrecision; text-rendering:geometricPrecision; image-rendering:optimizeQuality; fill-rule:evenodd; clip-rule:evenodd"
viewBox="0 0 3004.42 3004.42"
 xmlns:xlink="http://www.w3.org/1999/xlink"
 xmlns:xodm="http://www.corel.com/coreldraw/odm/2003">
 <defs>
  <style type="text/css">
   <![CDATA[
    .str0 {stroke:#FEFEFE;stroke-width:2.53;stroke-miterlimit:22.9256}
    .str1 {stroke:#373435;stroke-width:2.98;stroke-miterlimit:22.9256}
    .str2 {stroke:#373435;stroke-width:1.14;stroke-miterlimit:22.9256}
    .fil0 {fill:#FEFEFE}
    .fil1 {fill:#373435}
   ]]>
  </style>
 </defs>
 <g id="Camada_x0020_1">
  <metadata id="CorelCorpID_0Corel-Layer"/>
  <g id="_2218219305552">
   <circle class="fil0 str0" cx="1502.21" cy="1502.21" r="1500.95"/>
   <path class="fil1 str1" d="M1325.29 1898.79l0 -773.83c0,-41.49 32.46,-67.12 75.01,-67.12l1141.01 0c23.4,0 37.97,5.2 50.91,16.21 11.62,9.9 24.11,25.45 24.11,43.01l0 225.04 -351.38 0c-54.76,0 -106.6,58.28 -106.6,114.5l0 102.65c0,54.55 49.69,114.5 102.65,114.5l355.33 0 0 221.1c0,38.07 -35.12,63.17 -59.22,63.17l-1172.6 0c-26.59,0 -59.22,-32.63 -59.22,-59.22zm884.38 -331.64c0,-89.58 -19.44,-177.67 78.96,-177.67l363.23 0 0 236.89 -367.18 0c-42.69,0 -75.01,-29.49 -75.01,-59.22zm457.98 -225.04c0,-50.01 0,-100.02 0,-150.03 0,-62.26 5.32,-89.96 -19.8,-130.23 -29.72,-47.64 -71.35,-51.97 -123.53,-54.55l-298.96 -0.87c-33.75,-0.14 -66.1,9.25 -112.87,2.24l-676.66 1.8c-26.5,0 -74.14,-11.4 -113.45,20.78 -24.47,20.04 -48.42,54.65 -48.42,97.66l0 761.99c0,64.79 57.43,118.44 122.39,118.44l1156.8 0c54.38,0 110.01,-50.9 114.39,-110.65 4.93,-67.22 0.1,-155.41 0.1,-224.94 12.13,-6.42 35.53,-15.99 35.53,-43.43l0 -236.89c0,-29.73 -16.13,-41.06 -35.53,-51.33z"/>
   <path class="fil1 str1" d="M2281.58 1496.93c-0.85,39.98 8.74,38.62 42.58,30.74l3.95 -31.59c-15.97,-13.84 -9.96,-11.85 -35.53,-11.85l-11 12.69z"/>
   <path class="fil1 str1" d="M1678.59 962.37c44.76,-2.82 35.74,-16.46 133.14,-81.37l161.02 -115.35c13.26,-9.32 24.27,-18.84 38.68,-28.44l161 -115.37c15.11,-11.43 27.21,-18.51 41.79,-29.27 95.94,-70.78 83.53,-85.15 153.36,19.13l-241.62 172.94c-21.39,14.58 -37.97,28.96 -59.22,43.43 -21.79,14.84 -41.33,29.46 -62.36,44.24 -15.18,10.66 -103.47,72.4 -117.46,89.44l74.35 -0.22c7.01,-1.56 13.12,-4.01 17.95,-7.78l356.75 -259.16c13.66,-9.59 47.81,-39.3 63.2,-43.4 3.96,14.83 170.32,239.61 197.97,275.81 14.92,19.53 19.18,17.8 19.18,51.89 15.93,8.43 25.16,14.1 39.48,23.69 24.89,-47.03 7.84,-70.15 -21.44,-108.85 -79.74,-105.45 -163.1,-227.55 -244.17,-336.2 -62.61,-83.9 -77.52,-97.92 -168.66,-32.64 -10.27,7.36 -11.45,9.27 -23.72,15.76 -7.78,-29.15 -60.46,-84.91 -125.84,-35.03 -14.74,11.24 -25.62,18.41 -41.6,29.47l-548.84 394.76c-13.8,9.92 -33.52,20.94 -41.76,33.25l72.09 -0.22c8.36,-1.44 15.74,-4.05 21.8,-8.54l58.89 -43.76c8.86,-6.53 13.13,-8.23 21.52,-14.01l181.05 -130.85c34.26,-24.16 314.98,-229.02 323.72,-229.02 21.83,0 24.25,8.84 39.48,31.59 -11.29,15.41 -407.46,292.39 -474.33,342.93 -16.36,12.36 -55.87,36.77 -66.2,51.35l60.77 -0.18z"/>
   <path class="fil1 str2" d="M1320.76 2097.92c-1.7,4.94 -6.92,10.98 -19.14,30.61l-116.38 161.12c-91.7,92.07 -164.99,100.28 -286.78,100.28 -58.67,0 -125.59,-24.85 -150.7,-61.09 -43.06,-62.17 -0.57,-126.55 -116.4,-321.78 -76.12,-128.3 -132.7,-242.43 -224.33,-367.2 -11.73,-15.97 -12.09,-18.84 -23.06,-35.36l-169.02 -232.5c-5.96,-17.98 -15.99,9.82 46.18,-50.27 17.05,-16.47 36.4,-30.59 56.17,-46.07 101.2,-79.21 301.59,-178.35 435.09,-178.35 27.06,0 73.75,108.32 99.91,155.69 51.77,93.72 147.84,219.56 243.11,268.09 232.31,118.35 308.32,20.3 519.27,-21.58 147.35,-29.25 177.87,-15.8 286.21,-122.75 61.09,-60.31 62.37,-128.73 81.14,-159.85 7.12,-14.66 3.13,-10.03 12.26,-20.56 0.39,-0.19 10.41,-19.65 48.88,11.8 104.29,85.25 37.42,313.43 -41.99,334.64l0 14.61c19.21,-4.48 21.46,-6.64 36.51,-14.61 -2.28,102.22 -96.56,249.83 -205.72,298.18l-201.72 53.88c-36.49,10.1 -57.26,19.97 -89.36,34.79 -38.26,17.66 -60.6,23.34 -85.87,43.68 -64.45,34.5 -109.04,72.25 -134.28,124.6zm-524.64 -160.34l12.31 5.64 41.26 14.57c16.54,14.76 27.49,6.91 51.57,4.51 -6.74,-9.22 9.52,-4.14 -14.41,-11.37l-72.02 -15.63 -11.12 -5.77 -5.04 -3.34c-1.49,-0.84 -5.58,-1.85 -6.24,-2.01 -36.77,-8.8 -12.63,1.17 -11.99,5.43 10.36,5.53 3.33,4.97 15.69,7.96zm29.31 -43.34c-21.09,-12.73 -38.56,-22.59 -59.96,-35.89 -26.25,-16.31 -33.54,-26.78 -53.87,-45.36 -13.24,-19.65 -20.68,-27.04 -32.7,-43.45 -7.46,-10.18 -7.39,-11.53 -16.56,-20.51 -9.64,-9.44 -1.61,-1.33 -14.72,-11.48 -16.2,-17.19 -2.49,5.57 -3.26,3.87 13.12,29.17 38.11,70.01 64.23,95.17 27,34.24 66.86,53.67 110.45,68.99l22.39 8.91c23.99,10.82 5.01,2.29 24.41,7.92 -12.27,-17.48 5.06,-2.33 -17.93,-17.1 -1.33,-0.85 -6.25,-4.08 -7.5,-4.74l-14.98 -6.34zm1197.68 -665.48l-36.51 73.03c35.7,-9.53 36.51,-29.16 36.51,-73.03z"/>
  </g>
 </g>
</svg>
