<?xml version="1.0" encoding="UTF-8"?>
<!DOCTYPE svg PUBLIC "-//W3C//DTD SVG 1.1//EN" "http://www.w3.org/Graphics/SVG/1.1/DTD/svg11.dtd">
<!-- Creator: CorelDRAW 2021 (64 Bit) -->
<svg xmlns="http://www.w3.org/2000/svg" xml:space="preserve" width="201.315mm" height="201.315mm" version="1.1" style="shape-rendering:geometricPrecision; text-rendering:geometricPrecision; image-rendering:optimizeQuality; fill-rule:evenodd; clip-rule:evenodd"
viewBox="0 0 2224.89 2224.89"
 xmlns:xlink="http://www.w3.org/1999/xlink"
 xmlns:xodm="http://www.corel.com/coreldraw/odm/2003">
 <defs>
  <style type="text/css">
   <![CDATA[
    .str0 {stroke:#2F3A67;stroke-width:1.87;stroke-miterlimit:22.9256}
    .str1 {stroke:#FEFEFE;stroke-width:2.21;stroke-miterlimit:22.9256}
    .str2 {stroke:#FEFEFE;stroke-width:0.84;stroke-miterlimit:22.9256}
    .fil2 {fill:#FEFEFE}
    .fil1 {fill:#FEFEFE}
    .fil0 {fill:#2F3A67}
   ]]>
  </style>
 </defs>
 <g id="Camada_x0020_1">
  <metadata id="CorelCorpID_0Corel-Layer"/>
  <g id="_2216807377696">
   <circle class="fil0 str0" cx="1112.45" cy="1112.45" r="1111.51"/>
   <path class="fil1 str1" d="M981.43 1406.13l0 -573.05c0,-30.72 24.04,-49.7 55.55,-49.7l844.96 0c17.33,0 28.12,3.85 37.7,12.01 8.61,7.33 17.85,18.85 17.85,31.85l0 166.65 -260.21 0c-40.55,0 -78.94,43.16 -78.94,84.79l0 76.02c0,40.4 36.8,84.79 76.02,84.79l263.14 0 0 163.73c0,28.19 -26.01,46.78 -43.86,46.78l-868.35 0c-19.69,0 -43.86,-24.17 -43.86,-43.86zm654.92 -245.59c0,-66.34 -14.39,-131.57 58.47,-131.57l268.98 0 0 175.42 -271.91 0c-31.61,0 -55.55,-21.84 -55.55,-43.86zm339.15 -166.65c0,-37.03 0,-74.07 0,-111.1 0,-46.1 3.94,-66.62 -14.66,-96.44 -22.01,-35.28 -52.84,-38.48 -91.48,-40.4l-221.39 -0.65c-24.99,-0.1 -48.95,6.85 -83.59,1.66l-501.09 1.33c-19.62,0 -54.9,-8.44 -84.02,15.39 -18.12,14.84 -35.86,40.47 -35.86,72.32l0 564.28c0,47.98 42.53,87.71 90.64,87.71l856.66 0c40.27,0 81.47,-37.69 84.71,-81.94 3.65,-49.78 0.08,-115.09 0.08,-166.58 8.98,-4.75 26.31,-11.84 26.31,-32.16l0 -175.42c0,-22.02 -11.94,-30.41 -26.31,-38.01z"/>
   <path class="fil1 str1" d="M1689.6 1108.54c-0.63,29.61 6.47,28.6 31.53,22.76l2.92 -23.39c-11.83,-10.25 -7.38,-8.77 -26.31,-8.77l-8.14 9.4z"/>
   <path class="fil1 str1" d="M1243.07 712.67c33.14,-2.09 26.47,-12.19 98.6,-60.26l119.24 -85.42c9.82,-6.9 17.97,-13.95 28.65,-21.06l119.23 -85.43c11.19,-8.46 20.15,-13.71 30.95,-21.68 71.05,-52.42 61.86,-63.06 113.57,14.16l-178.93 128.07c-15.84,10.8 -28.12,21.44 -43.86,32.16 -16.14,10.99 -30.61,21.82 -46.18,32.76 -11.24,7.89 -76.62,53.61 -86.99,66.24l55.06 -0.16c5.19,-1.16 9.72,-2.97 13.29,-5.76l264.19 -191.92c10.11,-7.1 35.41,-29.1 46.8,-32.14 2.93,10.98 126.13,177.44 146.6,204.25 11.05,14.46 14.2,13.18 14.2,38.42 11.8,6.24 18.63,10.44 29.24,17.54 18.43,-34.83 5.8,-51.95 -15.87,-80.61 -59.05,-78.09 -120.78,-168.51 -180.82,-248.97 -46.36,-62.13 -57.4,-72.52 -124.9,-24.17 -7.61,5.45 -8.48,6.87 -17.56,11.67 -5.76,-21.59 -44.78,-62.88 -93.19,-25.94 -10.91,8.33 -18.97,13.64 -30.8,21.82l-406.44 292.33c-10.22,7.35 -24.82,15.51 -30.93,24.62l53.39 -0.16c6.19,-1.07 11.66,-3 16.15,-6.32l43.61 -32.41c6.56,-4.84 9.72,-6.1 15.94,-10.38l134.08 -96.9c25.37,-17.89 233.26,-169.6 239.73,-169.6 16.17,0 17.96,6.55 29.24,23.39 -8.36,11.41 -301.74,216.53 -351.26,253.96 -12.11,9.15 -41.38,27.23 -49.02,38.02l45.01 -0.13z"/>
   <path class="fil2 str2" d="M978.08 1553.59c-1.26,3.66 -5.13,8.13 -14.17,22.67l-86.19 119.32c-67.9,68.18 -122.18,74.26 -212.37,74.26 -43.45,0 -93.01,-18.4 -111.6,-45.24 -31.89,-46.04 -0.42,-93.71 -86.2,-238.29 -56.37,-95.01 -98.27,-179.53 -166.13,-271.93 -8.68,-11.83 -8.95,-13.95 -17.08,-26.19l-125.16 -172.18c-4.42,-13.32 -11.84,7.27 34.2,-37.22 12.62,-12.2 26.95,-22.65 41.6,-34.11 74.94,-58.66 223.34,-132.08 322.2,-132.08 20.04,0 54.61,80.22 73.99,115.3 38.34,69.4 109.48,162.59 180.03,198.53 172.04,87.64 228.33,15.03 384.54,-15.98 109.12,-21.66 131.72,-11.7 211.95,-90.9 45.24,-44.66 46.19,-95.33 60.09,-118.38 5.27,-10.85 2.32,-7.42 9.08,-15.22 0.29,-0.14 7.71,-14.55 36.2,8.74 77.23,63.13 27.71,232.11 -31.09,247.81l0 10.82c14.22,-3.31 15.89,-4.92 27.04,-10.82 -1.69,75.7 -71.51,185.01 -152.34,220.81l-149.38 39.9c-27.02,7.48 -42.41,14.79 -66.18,25.76 -28.33,13.08 -44.88,17.28 -63.59,32.35 -47.72,25.55 -80.75,53.5 -99.44,92.27zm-388.52 -118.74l9.12 4.18 30.55 10.79c12.25,10.93 20.36,5.12 38.19,3.34 -4.99,-6.83 7.05,-3.06 -10.67,-8.42l-53.33 -11.57 -8.24 -4.27 -3.73 -2.47c-1.11,-0.62 -4.13,-1.37 -4.62,-1.49 -27.23,-6.52 -9.35,0.86 -8.88,4.02 7.67,4.1 2.47,3.68 11.62,5.89zm21.71 -32.09c-15.62,-9.43 -28.56,-16.73 -44.4,-26.58 -19.44,-12.08 -24.83,-19.83 -39.9,-33.59 -9.81,-14.55 -15.32,-20.02 -24.22,-32.17 -5.52,-7.54 -5.48,-8.54 -12.26,-15.19 -7.14,-6.99 -1.19,-0.98 -10.9,-8.5 -11.99,-12.73 -1.84,4.12 -2.41,2.87 9.72,21.6 28.22,51.84 47.56,70.47 19.99,25.36 49.51,39.74 81.79,51.09l16.58 6.6c17.76,8.01 3.71,1.7 18.08,5.87 -9.08,-12.95 3.75,-1.72 -13.28,-12.66 -0.98,-0.63 -4.63,-3.02 -5.55,-3.51l-11.09 -4.7zm886.93 -492.81l-27.04 54.08c26.43,-7.06 27.04,-21.6 27.04,-54.08z"/>
  </g>
 </g>
</svg>
